#!OML:ASF H:\Pregnant\Project 1\Capture day 1\Session 1\femalepreg.ASF
:FULLY-SPECIFIED
:DEGREES
319
root 4.86586 15.6438 0.919105 -162.345 -3.5553 -180.439
lowerback -13.8241 4.86829 -8.67626
upperback -4.35121 6.87989 -7.76288
thorax 2.99472 2.91855 -2.26759
lowerneck 3.28206 22.2898 22.6346
upperneck 4.11316 30.9659 -14.3804
head 6.31619 15.453 -4.7092
rclavicle -6.0033e-014 7.31528e-014
rhumerus -49.2218 -10.1135 -77.4743
rradius 38.0067
rwrist -7.63104
rhand -18.719 -17.7571
rfingers 7.12502
rthumb 7.57639 -47.6014
lclavicle -6.0033e-014 7.31528e-014
lhumerus -28.5568 -33.8861 86.9665
lradius 30.9721
lwrist 40.932
lhand -22.7072 -4.97314
lfingers 7.12502
lthumb 3.72583 24.974
rfemur -40.1561 5.43769 19.7461
rtibia 69.8673
rfoot -9.64038 -3.99382
rtoes -22.3118
lfemur -32.5461 -14.9064 -23.0218
ltibia 33.984
lfoot -15.5638 2.78467
ltoes -10.0262
320
root 4.86636 15.6456 0.86777 -162.249 -4.22663 -180.521
lowerback -13.8059 4.80217 -8.67938
upperback -4.28221 6.82312 -7.63463
thorax 3.04457 2.90169 -2.13642
lowerneck 3.30161 22.2584 22.6373
upperneck 4.16028 30.9447 -14.4679
head 6.3412 15.4422 -4.73611
rclavicle 2.92213e-014 -6.67916e-014
rhumerus -48.8561 -10.3328 -77.4297
rradius 38.7584
rwrist -8.17574
rhand -19.3061 -17.9659
rfingers 7.12502
rthumb 7.00965 -47.8298
lclavicle 2.92213e-014 -6.67916e-014
lhumerus -28.4578 -33.9897 87.0041
lradius 30.312
lwrist 40.0656
lhand -22.5116 -4.91876
lfingers 7.12502
lthumb 3.91475 25.025
rfemur -41.3513 5.5322 19.5464
rtibia 70.3992
rfoot -9.94116 -4.26192
rtoes -22.2771
lfemur -32.3938 -15.1189 -23.0446
ltibia 33.7871
lfoot -15.7039 2.34206
ltoes -9.8344
321
root 4.86761 15.6482 0.814847 -162.144 -4.9183 -180.606
lowerback -13.8 4.7298 -8.68595
upperback -4.21833 6.75813 -7.50302
thorax 3.09512 2.88019 -2.0005
lowerneck 3.32395 22.2238 22.6447
upperneck 4.22269 30.9192 -14.5419
head 6.36826 15.4296 -4.76042
rclavicle 2.94201e-014 8.5875e-014
rhumerus -48.5046 -10.5294 -77.3965
rradius 39.5158
rwrist -8.6751
rhand -19.7244 -18.2053
rfingers 7.12502
rthumb 6.60591 -48.0823
lclavicle 2.94201e-014 8.5875e-014
lhumerus -28.3639 -34.0077 87.003
lradius 29.6925
lwrist 39.3043
lhand -22.3637 -4.79382
lfingers 7.12502
lthumb 4.0576 25.1473
rfemur -42.525 5.6755 19.311
rtibia 70.8095
rfoot -10.2534 -4.44047
rtoes -22.2825
lfemur -32.2382 -15.3321 -23.06
ltibia 33.5758
lfoot -15.8441 1.87931
ltoes -9.63744
322
root 4.86962 15.6512 0.760569 -162.035 -5.62513 -180.693
lowerback -13.7995 4.65518 -8.69377
upperback -4.1551 6.69028 -7.36919
thorax 3.14784 2.85694 -1.86178
lowerneck 3.33241 22.1884 22.6545
upperneck 4.30267 30.8909 -14.6105
head 6.40199 15.415 -4.78158
rclavicle -4.87022e-014 -5.725e-014
rhumerus -48.152 -10.6887 -77.3838
rradius 40.2641
rwrist -9.14461
rhand -19.9826 -18.4563
rfingers 7.12502
rthumb 6.3566 -48.341
lclavicle -4.87022e-014 -5.725e-014
lhumerus -28.268 -33.9557 86.9633
lradius 29.1243
lwrist 38.6702
lhand -22.2786 -4.57483
lfingers 7.12502
lthumb 4.13978 25.3647
rfemur -43.6723 5.87322 19.0376
rtibia 71.104
rfoot -10.561 -4.55844
rtoes -22.3519
lfemur -32.0755 -15.5438 -23.0688
ltibia 33.354
lfoot -15.9836 1.39928
ltoes -9.42952
323
root 4.87259 15.6547 0.705691 -161.91 -6.35281 -180.783
lowerback -13.8019 4.57402 -8.70252
upperback -4.10197 6.61133 -7.23364
thorax 3.19163 2.8279 -1.72272
lowerneck 3.32421 22.1576 22.6616
upperneck 4.41495 30.8653 -14.6537
head 6.44418 15.4012 -4.79186
rclavicle 1.19271e-014 4.13472e-014
rhumerus -47.8131 -10.8056 -77.3922
rradius 41.0143
rwrist -9.58046
rhand -20.0931 -18.7054
rfingers 7.12502
rthumb 6.24995 -48.5932
lclavicle 1.19271e-014 4.13472e-014
lhumerus -28.1821 -33.828 86.8862
lradius 28.6153
lwrist 38.1641
lhand -22.2639 -4.28113
lfingers 7.12502
lthumb 4.15392 25.6581
rfemur -44.8113 6.11893 18.725
rtibia 71.2914
rfoot -10.8458 -4.64119
rtoes -22.469
lfemur -31.9284 -15.7536 -23.0648
ltibia 33.1287
lfoot -16.1204 0.896072
ltoes -9.20877
324
root 4.87651 15.6582 0.650338 -161.769 -7.10179 -180.87
lowerback -13.8042 4.49312 -8.7036
upperback -4.05385 6.53032 -7.09975
thorax 3.23152 2.79769 -1.59018
lowerneck 3.30914 22.1185 22.6625
upperneck 4.52442 30.8258 -14.6854
head 6.48125 15.3805 -4.80128
rclavicle -1.16687e-013 8.74653e-014
rhumerus -47.4647 -10.887 -77.4234
rradius 41.7362
rwrist -9.99579
rhand -20.1094 -18.911
rfingers 7.12502
rthumb 6.23419 -48.7993
lclavicle -1.16687e-013 8.74653e-014
lhumerus -28.0912 -33.6502 86.7731
lradius 28.1688
lwrist 37.7849
lhand -22.3216 -3.94996
lfingers 7.12502
lthumb 4.09824 25.9904
rfemur -45.9422 6.40976 18.3746
rtibia 71.3769
rfoot -11.099 -4.71147
rtoes -22.6453
lfemur -31.803 -15.959 -23.0448
ltibia 32.9084
lfoot -16.2564 0.369711
ltoes -8.99175
325
root 4.88099 15.6615 0.594175 -161.622 -7.86043 -180.952
lowerback -13.7798 4.42678 -8.67699
upperback -4.03117 6.456 -6.98146
thorax 3.23497 2.77126 -1.491
lowerneck 3.29505 22.0694 22.6743
upperneck 4.65236 30.7713 -14.693
head 6.51892 15.3531 -4.80776
rclavicle 3.97569e-016 7.79236e-014
rhumerus -47.1546 -10.9572 -77.4763
rradius 42.4343
rwrist -10.3771
rhand -20.0317 -19.0439
rfingers 7.12502
rthumb 6.30917 -48.9299
lclavicle 3.97569e-016 7.79236e-014
lhumerus -28.0444 -33.4602 86.6382
lradius 27.7982
lwrist 37.5375
lhand -22.4938 -3.59179
lfingers 7.12502
lthumb 3.93197 26.3517
rfemur -47.0544 6.75171 17.9849
rtibia 71.3619
rfoot -11.315 -4.78519
rtoes -22.8613
lfemur -31.689 -16.1612 -23.0086
ltibia 32.699
lfoot -16.3991 -0.164425
ltoes -8.76282
